<svg xmlns="http://www.w3.org/2000/svg" viewBox="0 0 512 512" fill="none">
  <rect width="512" height="512" rx="112" fill="#0D1B2A"/>
  <g stroke="#FFFFFF" stroke-linecap="round" stroke-linejoin="round" fill="none">
    <path d="M96 400V216C96 148 168 96 256 96C344 96 416 148 416 216V400" stroke-width="32"/>
    <path d="M96 400H416" stroke-width="32"/>
    <path d="M96 400V432M128 400V432" stroke-width="24"/>
    <path d="M152 400L232 240H280L360 400" stroke-width="26"/>
    <path d="M168 352h48M180 304h40" stroke-width="20"/>
    <path d="M296 352h48M292 304h40" stroke-width="20"/>
    <rect x="226" y="176" width="60" height="60" rx="12" stroke-width="24"/>
    <path d="M256 224V192M256 192l-20 18M256 192l20 18" stroke-width="22"/>
  </g>
</svg>
