<svg xmlns="http://www.w3.org/2000/svg" viewBox="0 0 64 64" fill="none">
  <rect width="64" height="64" rx="14" fill="#0D1B2A"/>
  <g stroke="#FFFFFF" stroke-linecap="round" stroke-linejoin="round" fill="none">
    <path d="M12 50V27C12 18.5 21 12 32 12C43 12 52 18.5 52 27V50" stroke-width="4"/>
    <path d="M12 50H52" stroke-width="4"/>
    <path d="M12 50V54M16 50V54" stroke-width="3"/>
    <path d="M19 50L29 30H35L45 50" stroke-width="3.25"/>
    <path d="M21 44h6M22.5 38h5" stroke-width="2.5"/>
    <path d="M37 44h6M36.5 38h5" stroke-width="2.5"/>
    <rect x="28.25" y="22" width="7.5" height="7.5" rx="1.5" stroke-width="3"/>
    <path d="M32 28.5V24M32 24l-2.5 2.25M32 24l2.5 2.25" stroke-width="2.75"/>
  </g>
</svg>
